<svg width="107" height="80" viewBox="0 0 107 80" fill="none" xmlns="http://www.w3.org/2000/svg">
<rect width="107" height="80" rx="4" fill="#F3F3F3"/>
<path d="M16 17C16 14.7909 17.7909 13 20 13H87C89.2091 13 91 14.7909 91 17V80H16V17Z" fill="white"/>
<rect x="34" y="25" width="29" height="3" fill="#364962" fill-opacity="0.2"/>
<rect x="34" y="33" width="39" height="2" fill="#364962" fill-opacity="0.2"/>
<rect x="34" y="36" width="39" height="2" fill="#364962" fill-opacity="0.2"/>
<rect x="34" y="39" width="39" height="2" fill="#364962" fill-opacity="0.2"/>
<rect x="34" y="46" width="39" height="2" fill="#364962" fill-opacity="0.2"/>
<rect x="34" y="49" width="39" height="2" fill="#364962" fill-opacity="0.2"/>
<rect x="34" y="52" width="39" height="2" fill="#364962" fill-opacity="0.2"/>
<rect x="34" y="55" width="39" height="2" fill="#364962" fill-opacity="0.2"/>
<rect x="34" y="58" width="39" height="2" fill="#364962" fill-opacity="0.2"/>
<rect x="34" y="61" width="39" height="2" fill="#364962" fill-opacity="0.2"/>
<rect x="34" y="67" width="39" height="2" fill="#364962" fill-opacity="0.2"/>
<rect x="34" y="70" width="39" height="2" fill="#364962" fill-opacity="0.2"/>
</svg>
