<svg width="107" height="80" viewBox="0 0 107 80" fill="none" xmlns="http://www.w3.org/2000/svg">
<rect width="107" height="80" rx="4" fill="#121314"/>
<path d="M23 0H103C105.209 0 107 1.79086 107 4V76C107 78.2091 105.209 80 103 80H23V0Z" fill="#2B2732"/>
<rect x="50" y="19" width="21" height="3" fill="#EAEAEA" fill-opacity="0.8"/>
<rect x="50" y="27" width="29" height="2" fill="#EAEAEA" fill-opacity="0.8"/>
<rect x="50" y="30" width="29" height="2" fill="#EAEAEA" fill-opacity="0.8"/>
<rect x="50" y="33" width="29" height="2" fill="#EAEAEA" fill-opacity="0.8"/>
<rect x="50" y="40" width="29" height="2" fill="#EAEAEA" fill-opacity="0.8"/>
<rect x="50" y="43" width="29" height="2" fill="#EAEAEA" fill-opacity="0.8"/>
<rect x="50" y="46" width="29" height="2" fill="#EAEAEA" fill-opacity="0.8"/>
<rect x="50" y="49" width="29" height="2" fill="#EAEAEA" fill-opacity="0.8"/>
<rect x="50" y="52" width="29" height="2" fill="#EAEAEA" fill-opacity="0.8"/>
<rect x="50" y="55" width="29" height="2" fill="#EAEAEA" fill-opacity="0.8"/>
<rect x="50" y="61" width="29" height="2" fill="#EAEAEA" fill-opacity="0.8"/>
<rect x="50" y="64" width="29" height="2" fill="#EAEAEA" fill-opacity="0.8"/>
</svg>
